<?xml version="1.0" standalone="no"?>
<!DOCTYPE svg PUBLIC "-//W3C//DTD SVG 20010904//EN"
 "http://www.w3.org/TR/2001/REC-SVG-20010904/DTD/svg10.dtd">
<svg version="1.0" xmlns="http://www.w3.org/2000/svg"
 width="2400.000000pt" height="2400.000000pt" viewBox="0 0 2400.000000 2400.000000"
 preserveAspectRatio="xMidYMid meet">
<metadata>
Created by potrace 1.14, written by Peter Selinger 2001-2017
</metadata>
<g transform="translate(0.000000,2400.000000) scale(0.100000,-0.100000)"
fill="#000000" stroke="none">
<path d="M11887 22954 c-1 -1 -121 -5 -267 -8 -146 -4 -285 -8 -310 -10 -25
-2 -94 -7 -155 -10 -60 -4 -121 -8 -135 -11 -14 -2 -65 -7 -114 -10 -50 -4
-97 -8 -105 -10 -9 -2 -45 -6 -81 -9 -36 -4 -81 -9 -100 -11 -19 -3 -55 -7
-80 -10 -25 -3 -65 -8 -90 -11 -68 -7 -407 -62 -550 -89 -41 -8 -95 -17 -120
-20 -24 -4 -47 -8 -51 -10 -3 -2 -21 -7 -40 -10 -28 -5 -177 -37 -229 -50 -8
-2 -55 -13 -105 -24 -49 -11 -117 -27 -150 -36 -33 -9 -96 -25 -140 -37 -421
-109 -1133 -354 -1450 -498 -22 -10 -80 -36 -130 -58 -179 -80 -234 -105 -445
-211 -654 -328 -1221 -692 -1800 -1156 -69 -55 -130 -104 -136 -110 -6 -5 -35
-30 -64 -55 -48 -40 -114 -96 -146 -125 -212 -189 -611 -583 -764 -755 -47
-52 -94 -104 -105 -115 -16 -17 -146 -172 -294 -350 -177 -214 -485 -647 -678
-955 -672 -1069 -1139 -2223 -1458 -3599 -2 -9 -29 -137 -58 -286 l-55 -270
-2 -1325 c-1 -729 -3 -2367 -5 -3640 -2 -1273 -4 -3077 -4 -4009 -1 -1855 -6
-1718 56 -1758 25 -17 183 -18 2785 -19 1517 -1 2762 -5 2766 -9 4 -3 8 -502
9 -1108 1 -606 2 -1108 2 -1114 1 -10 31 -13 116 -13 85 0 115 3 116 13 1 6 1
510 1 1120 l0 1107 26 1 c156 3 4847 -3 4856 -7 8 -3 11 -328 11 -1114 0 -739
3 -1111 10 -1113 9 -2 197 -1 218 2 4 1 7 502 7 1115 l0 1114 2313 -3 c1271
-1 2315 -3 2318 -4 3 0 5 -501 5 -1111 l-1 -1110 120 0 120 0 -2 1092 c-1 601
0 1102 2 1113 l4 20 2545 -1 c2417 -2 2546 -1 2578 15 67 36 62 -224 64 3026
2 1623 4 4046 5 5386 1 1340 -1 2440 -3 2445 -3 5 -8 32 -12 59 -3 28 -9 64
-12 80 -3 17 -7 39 -9 50 -4 29 -14 86 -36 200 -11 55 -22 114 -25 130 -8 46
-62 287 -91 405 -210 868 -554 1770 -948 2490 -32 58 -70 128 -85 155 -222
407 -649 1034 -958 1405 -30 36 -62 74 -71 85 -45 54 -136 161 -145 171 -6 6
-36 40 -66 74 -192 220 -577 603 -825 821 -27 24 -52 46 -55 49 -3 3 -34 30
-70 60 -36 30 -67 57 -70 61 -30 34 -429 342 -635 491 -127 91 -509 345 -592
393 -10 6 -92 54 -181 108 -90 53 -166 97 -169 97 -2 0 -35 18 -71 39 -337
197 -957 482 -1422 656 -69 25 -135 50 -147 55 -13 5 -78 28 -145 51 -68 22
-132 45 -143 49 -26 11 -314 99 -490 149 -115 32 -312 82 -600 151 -146 35
-588 117 -781 145 -60 8 -121 17 -135 20 -13 2 -67 9 -119 15 -52 6 -111 13
-131 16 -20 2 -59 7 -85 9 -27 3 -69 7 -94 10 -46 5 -114 11 -210 19 -62 6
-189 15 -300 21 -123 7 -698 23 -703 19z m568 -248 c207 -11 361 -21 465 -31
25 -2 74 -7 110 -10 36 -3 88 -9 115 -12 28 -3 61 -7 75 -8 114 -12 148 -16
165 -20 11 -2 46 -7 78 -10 32 -4 68 -8 80 -11 12 -2 51 -9 87 -14 114 -16
143 -21 260 -41 1451 -250 2863 -804 4065 -1597 208 -137 548 -379 650 -463
11 -9 70 -56 130 -105 61 -48 112 -91 115 -94 3 -3 18 -15 33 -27 31 -24 122
-103 201 -174 28 -26 65 -58 81 -72 148 -124 543 -524 776 -787 155 -175 492
-603 634 -807 65 -93 178 -262 230 -343 26 -41 58 -91 70 -110 58 -90 184
-307 266 -458 49 -92 94 -174 99 -182 26 -45 198 -400 245 -505 7 -16 26 -59
43 -95 16 -36 64 -153 106 -260 43 -107 82 -204 87 -215 29 -66 194 -552 224
-660 8 -27 33 -113 55 -190 68 -235 166 -642 206 -855 2 -14 6 -36 9 -50 17
-87 28 -148 30 -165 2 -11 6 -33 9 -50 6 -28 18 -100 31 -185 5 -30 -3 -49
-53 -130 -32 -52 -61 -102 -65 -110 -4 -8 -15 -27 -25 -42 -16 -24 -103 -170
-127 -211 -5 -10 -80 -133 -165 -275 -85 -141 -158 -263 -163 -272 -4 -8 -15
-27 -25 -42 -16 -26 -226 -373 -247 -410 -5 -10 -53 -89 -105 -175 -52 -87
-98 -164 -103 -173 -4 -8 -15 -27 -25 -42 -16 -27 -436 -724 -457 -760 -5 -9
-39 -66 -75 -125 -35 -59 -69 -116 -75 -126 -5 -10 -80 -133 -165 -274 -85
-142 -158 -264 -163 -273 -4 -8 -15 -27 -25 -42 -16 -24 -103 -169 -127 -211
-5 -10 -80 -133 -165 -275 -85 -141 -159 -265 -165 -274 -5 -9 -39 -66 -75
-125 -35 -59 -69 -117 -75 -128 -7 -11 -28 -46 -48 -77 -20 -31 -37 -59 -37
-62 0 -3 -108 -183 -159 -266 -6 -8 -34 -55 -63 -104 -29 -49 -62 -104 -73
-122 -20 -34 -232 -385 -250 -416 -5 -10 -46 -77 -90 -150 -44 -73 -84 -141
-90 -150 -5 -9 -39 -66 -75 -125 -35 -59 -69 -116 -75 -126 -5 -10 -80 -133
-165 -275 -85 -141 -159 -265 -165 -274 -14 -24 -355 -592 -382 -637 -13 -20
-32 -52 -43 -71 -11 -19 -30 -52 -42 -72 -55 -88 -153 -254 -157 -263 -2 -5
-16 -28 -31 -50 -15 -22 -36 -56 -46 -75 -32 -58 -108 -185 -114 -190 -4 -3
-9 -12 -13 -20 -4 -8 -17 -32 -29 -52 -13 -20 -47 -76 -75 -125 -29 -48 -56
-94 -61 -100 -4 -7 -8 1717 -8 3832 l1 3845 302 0 c167 0 303 2 303 4 0 2 -30
55 -66 117 -96 166 -213 368 -239 414 -13 22 -109 189 -214 370 -105 182 -193
335 -195 340 -6 15 -29 -18 -113 -165 -43 -74 -83 -144 -90 -155 -7 -11 -15
-26 -19 -34 -8 -16 -158 -277 -173 -301 -12 -18 -168 -289 -196 -339 -11 -20
-39 -67 -62 -106 -22 -38 -50 -87 -62 -107 l-21 -38 305 0 305 0 -2 -3855 c-1
-2956 -4 -3851 -13 -3837 -12 17 -156 264 -182 312 -8 14 -25 43 -38 65 -14
22 -44 73 -67 114 -24 40 -53 90 -65 110 -11 20 -27 47 -35 61 -14 23 -139
239 -178 305 -63 106 -186 316 -205 350 -12 22 -68 117 -122 210 -196 333
-417 712 -491 840 -41 72 -78 135 -82 140 -4 6 -19 30 -33 55 -13 25 -188 324
-387 665 -200 341 -370 634 -380 650 -9 17 -88 152 -175 300 -87 149 -188 322
-225 385 -36 63 -138 237 -225 385 -87 149 -188 322 -225 385 -37 63 -112 193
-168 288 -56 96 -102 176 -102 179 0 3 -8 17 -19 31 -28 40 -121 204 -121 213
0 5 -4 9 -10 9 -5 0 -10 4 -10 9 0 5 -49 93 -110 196 -60 103 -110 188 -110
190 0 1 -24 42 -53 91 -29 49 -230 393 -447 764 -216 371 -403 686 -414 698
-42 48 -89 57 -144 28 -27 -14 -88 -102 -182 -265 -24 -42 -171 -282 -205
-336 -18 -27 -147 -239 -287 -470 -141 -231 -338 -555 -438 -720 -101 -165
-231 -379 -290 -475 -59 -96 -171 -281 -250 -410 -278 -456 -357 -585 -371
-610 -8 -14 -16 -27 -19 -30 -3 -3 -60 -95 -126 -205 -67 -110 -172 -283 -234
-385 -62 -102 -118 -194 -124 -205 -6 -11 -20 -34 -32 -50 -12 -17 -23 -35
-25 -40 -2 -6 -31 -54 -64 -108 -33 -54 -64 -106 -70 -115 -5 -10 -24 -40 -41
-67 -17 -28 -127 -207 -244 -400 -117 -192 -223 -366 -235 -385 -13 -19 -107
-174 -210 -345 -103 -170 -198 -326 -210 -345 -13 -19 -48 -75 -78 -125 -269
-445 -483 -796 -502 -825 -13 -19 -37 -57 -53 -85 -16 -27 -73 -122 -127 -210
-54 -88 -107 -176 -119 -196 -16 -28 -150 -245 -257 -419 -65 -107 -92 -151
-110 -185 -17 -31 -23 -36 -28 -23 -3 10 -6 1746 -6 3860 l0 3842 298 1 c176
0 297 3 297 9 0 5 -24 50 -54 100 -29 50 -62 107 -72 126 -10 19 -22 37 -26
38 -5 2 -8 7 -8 12 0 5 -63 117 -141 250 -77 133 -150 259 -161 279 -11 20
-44 77 -73 126 -29 50 -82 141 -118 203 l-65 113 -80 -138 c-44 -76 -89 -154
-101 -173 -11 -19 -24 -42 -28 -50 -4 -8 -32 -58 -63 -110 -31 -52 -74 -126
-94 -165 -21 -38 -45 -77 -52 -86 -8 -8 -14 -18 -14 -21 0 -4 -38 -72 -85
-153 -47 -80 -96 -165 -109 -188 -13 -23 -40 -70 -60 -104 -20 -34 -36 -63
-36 -66 0 -2 133 -4 296 -3 188 1 298 -3 302 -9 4 -5 7 -1018 9 -2250 1 -1232
3 -2972 4 -3868 1 -895 0 -1629 -2 -1631 -2 -2 -53 73 -113 168 -60 94 -156
242 -213 329 -57 87 -103 162 -103 168 0 5 -4 9 -8 9 -5 0 -13 10 -19 23 -6
12 -49 81 -95 152 -101 155 -191 294 -313 485 -84 130 -154 240 -258 400 -23
35 -51 79 -62 97 -32 51 -253 392 -337 521 -43 64 -81 124 -85 132 -4 8 -74
117 -155 243 -81 125 -148 230 -148 233 0 3 -5 10 -11 17 -5 7 -48 71 -94 142
-147 228 -218 338 -267 413 -26 41 -48 75 -48 76 0 2 -22 36 -48 77 -27 41
-69 106 -94 144 -91 142 -136 212 -194 300 -32 50 -63 98 -69 108 -5 10 -60
95 -121 190 -288 443 -578 894 -588 912 -6 11 -50 79 -96 151 -47 72 -89 138
-95 147 -5 8 -108 168 -228 354 -452 700 -640 991 -708 1098 -39 61 -129 200
-200 310 -71 110 -177 274 -235 365 -58 91 -151 235 -206 320 -56 85 -111 172
-123 193 l-22 38 19 92 c10 51 21 106 23 122 3 17 9 48 14 70 9 38 47 208 55
250 3 11 12 52 21 90 9 39 18 77 20 85 18 90 135 513 195 710 74 239 238 713
280 805 5 11 27 65 49 121 47 120 108 264 187 440 55 124 290 595 349 699 54
96 183 320 211 367 16 26 49 80 73 120 93 153 288 442 420 623 66 90 336 440
356 461 21 23 62 71 114 134 29 36 58 70 64 75 7 6 41 44 77 85 260 300 772
790 1074 1030 10 8 33 27 50 41 194 162 596 452 876 631 354 225 864 505 1185
649 28 12 100 44 160 71 61 28 144 63 185 80 41 16 93 38 115 47 22 10 67 28
100 40 83 32 96 37 125 49 14 6 66 25 115 42 50 17 100 35 111 40 160 65 894
280 1070 313 11 2 30 7 44 10 57 14 157 37 180 41 28 6 224 45 255 52 10 2 37
6 60 9 22 3 47 8 55 10 18 5 75 15 115 21 17 2 53 8 80 13 28 6 68 12 90 15
22 3 72 10 110 15 39 5 93 12 120 15 28 4 59 8 71 10 12 2 57 7 100 11 43 4
87 9 96 10 28 6 268 27 443 39 33 3 139 8 235 11 96 4 176 8 177 9 6 5 692 -2
808 -8z"/>
<path d="M9259 21126 c-2 -2 -38 -6 -79 -10 -41 -3 -84 -8 -95 -10 -11 -2 -40
-7 -65 -11 -65 -11 -67 -11 -160 -33 -47 -12 -104 -28 -128 -36 -23 -8 -46
-16 -50 -17 -4 -1 -17 -5 -30 -10 -13 -5 -27 -9 -31 -9 -18 0 -197 -77 -301
-131 -96 -48 -363 -216 -380 -238 -3 -3 -30 -26 -60 -51 -293 -237 -536 -559
-695 -920 -40 -92 -117 -310 -109 -310 2 0 0 -8 -5 -19 -6 -10 -13 -33 -16
-52 -3 -19 -10 -47 -15 -64 -5 -16 -11 -46 -14 -65 -3 -19 -10 -62 -16 -94
-30 -179 -34 -624 -6 -706 2 -8 7 -35 10 -60 10 -77 16 -112 43 -215 177 -700
651 -1286 1301 -1606 78 -39 148 -72 155 -73 7 -1 30 -10 52 -20 84 -36 330
-104 439 -122 21 -3 47 -7 58 -9 123 -24 423 -35 578 -21 440 40 820 177 1192
428 35 23 65 45 68 48 3 3 34 28 70 55 83 62 309 288 382 380 286 363 486 841
523 1252 4 35 8 73 11 85 6 33 7 364 0 418 -3 25 -8 65 -11 90 -2 25 -7 56 -9
70 -3 14 -7 43 -11 65 -28 189 -113 443 -222 663 -58 118 -203 353 -240 390
-7 8 -26 30 -41 50 -42 57 -80 99 -177 197 -354 359 -806 596 -1310 689 -11 2
-43 7 -70 10 -28 4 -64 10 -80 12 -36 6 -450 15 -456 10z"/>
</g>
</svg>
