<svg xmlns="http://www.w3.org/2000/svg" viewBox="0 0 48 48">
  <path d="M5.13 42.276c1.256-.422 2.513-.835 4.227-1.517 1.705-.673 3.868-1.615 5.43-2.414s2.513-1.454 3.626-2.109a7.8 7.8 0 0 0 3.016-2.414 6.895 6.895 0 0 0 .61-3.626 9.607 9.607 0 0 0-.306-1.813 3.868 3.868 0 0 1 0-1.813c.18-.556.629-.951-.6-3.015s-4.13-5.807-4.228-6.346c-.108-.538 2.594 2.127 4.227 3.931 1.634 1.795 2.199 2.747 2.72 3.016a.59.59 0 0 0 .897-.601c-.054-.485-.62-1.042-.332-1.571a3.627 3.627 0 0 1 2.145-1.149 1.037 1.037 0 0 1 1.256.592c.26.458.512 1.113.26 1.517-.26.413-1.005.566-1.507.934-.503.359-.763.933-.377.924.395-.009 1.436-.601 2.486-.951a26.026 26.026 0 0 1 2.72-.602c.601-.143.763-.323 1.804-.601a17.21 17.21 0 0 1 3.626-.601c.637.054-.036.538-.907.897-.87.368-1.938.62-2.72.907-.77.296-1.264.637-2.108.906a13.617 13.617 0 0 0-2.72.907c-.664.43-.79 1.086-1.202 1.813s-1.113 1.516-1.149 2.118c-.045.6.565 1.005.844 1.507s.233 1.095.646 1.553a13.317 13.317 0 0 0 2.37 1.463c1.085.664 2.369 1.633 3.275 2.091.915.458 1.445.386 2.432.853a30.201 30.201 0 0 0 3.743 1.885c1.337.421 2.567.26 2.988.583s.036 1.13-.673 1.346a3.318 3.318 0 0 1-2.243-.449c-.503-.296-.467-.53-1.418-.897-.943-.368-2.863-.862-4.775-1.57-1.92-.71-3.823-1.616-5.439-2.03a7.264 7.264 0 0 0-3.922 0 15.232 15.232 0 0 0-2.423 1.212c-.763.368-1.625.602-2.71 1.203a22.809 22.809 0 0 1-3.931 2.118c-1.526.512-3.258.548-4.227.907s-1.167 1.032-1.508 1.202-.835-.161-1.508-.296a9.423 9.423 0 0 0-2.415 0Z" class="a"/>
  <path d="M41.506 24.635c-.704-9.115-7.41-17.62-17.92-17.391-10.51.228-16.548 8.3-16.954 17.55l-1.627-.001c-.256-10.51 8.071-19.228 18.581-19.457 10.51-.228 19.274 8.717 19.476 19.227Z" class="a"/>
</svg>
